<svg width="40" height="40" viewBox="0 0 40 40" fill="none" xmlns="http://www.w3.org/2000/svg">
<g clip-path="url(#clip0_1_37)">
<path d="M33.88 38.1218L33.8802 38.122C34.4427 38.6842 35.2055 39 36.0009 39C36.7962 39 37.559 38.6842 38.1215 38.122L38.122 38.1215C38.6842 37.559 39 36.7962 39 36.0009C39 35.2055 38.6842 34.4427 38.122 33.8802L38.1218 33.88L28.5149 24.2721C30.0854 21.9005 31.0003 19.0558 31.0003 16.0001C31.0003 7.71508 24.2841 1 16.0001 1C7.71619 1 1 7.71508 1 16.0001C1 24.2831 7.7161 31.0003 16.0001 31.0003C19.0563 31.0003 21.901 30.0853 24.2725 28.5147L33.88 38.1218Z" fill="black" stroke="black" stroke-width="2"/>
<path d="M37.066 37.066C36.6985 37.4333 36.2001 37.6396 35.6805 37.6396C35.1609 37.6396 34.6625 37.4333 34.295 37.066L14.198 16.97C14.0159 16.788 13.8715 16.5719 13.7729 16.3341C13.6744 16.0962 13.6236 15.8413 13.6236 15.5839C13.6235 15.3264 13.6742 15.0715 13.7726 14.8336C13.8711 14.5957 14.0155 14.3796 14.1975 14.1975C14.3795 14.0154 14.5956 13.871 14.8334 13.7724C15.0713 13.6738 15.3262 13.6231 15.5837 13.623C15.8411 13.623 16.096 13.6737 16.3339 13.7721C16.5718 13.8706 16.7879 14.015 16.97 14.197L37.066 34.295C37.4333 34.6625 37.6396 35.1609 37.6396 35.6805C37.6396 36.2001 37.4333 36.6985 37.066 37.066Z" fill="#FFAC33"/>
<path d="M29.8 16.08C29.8 23.656 23.658 29.8 16.08 29.8C8.503 29.8 2.36 23.656 2.36 16.08C2.36 8.502 8.503 2.36 16.08 2.36C23.657 2.36 29.8 8.502 29.8 16.08Z" fill="#DD2E44"/>
<path d="M19.411 29.376C17.933 29.4712 16.4499 29.3008 15.032 28.873C13.4788 28.4047 12.0339 27.633 10.7808 26.6026C9.52778 25.5722 8.49153 24.3035 7.732 22.87C7.13043 21.7491 6.75713 20.5201 6.63371 19.254C6.5103 17.9879 6.63921 16.7099 7.013 15.494C7.37966 14.2758 7.98454 13.1426 8.79255 12.16C9.60055 11.1774 10.5956 10.3651 11.72 9.77C12.5939 9.30086 13.5521 9.00972 14.5393 8.91342C15.5265 8.81712 16.5229 8.91759 17.471 9.209C18.4206 9.49524 19.304 9.96699 20.0701 10.597C20.8362 11.2269 21.4697 12.0026 21.934 12.879C22.2973 13.5553 22.5227 14.2969 22.5972 15.061C22.6717 15.825 22.5938 16.5963 22.368 17.33C22.1468 18.0652 21.7819 18.7492 21.2944 19.3423C20.8069 19.9353 20.2065 20.4257 19.528 20.785C19.0095 21.0633 18.441 21.2361 17.8554 21.2933C17.2697 21.3504 16.6785 21.2908 16.116 21.118C15.5525 20.9481 15.0283 20.6681 14.5738 20.2943C14.1193 19.9204 13.7434 19.4601 13.468 18.94C13.0459 18.1471 12.9558 17.2192 13.2173 16.3599C13.4789 15.5006 14.0708 14.7803 14.863 14.357C15.1538 14.2004 15.4729 14.1032 15.8017 14.0711C16.1305 14.0389 16.4624 14.0726 16.778 14.17C17.0093 14.2407 17.224 14.3403 17.422 14.469C17.0795 14.3011 16.702 14.2169 16.3205 14.2233C15.9391 14.2297 15.5647 14.3266 15.228 14.506C14.5809 14.8524 14.0975 15.4412 13.8839 16.1434C13.6702 16.8456 13.7436 17.6039 14.088 18.252C14.2859 18.6253 14.5558 18.9557 14.8821 19.2241C15.2084 19.4925 15.5846 19.6937 15.989 19.816C16.811 20.066 17.681 19.982 18.439 19.577C19.3217 19.105 19.9811 18.3021 20.2726 17.3445C20.5642 16.3869 20.4639 15.3528 19.994 14.469C19.7189 13.9496 19.3435 13.49 18.8895 13.1168C18.4354 12.7436 17.9118 12.4643 17.349 12.295C16.7872 12.122 16.1967 12.0623 15.6117 12.1193C15.0267 12.1762 14.4588 12.3488 13.941 12.627C12.691 13.2959 11.7573 14.4331 11.3445 15.7893C10.9317 17.1456 11.0736 18.6102 11.739 19.862C12.1352 20.6094 12.6757 21.2709 13.3291 21.8082C13.9826 22.3454 14.7361 22.7478 15.546 22.992C17.191 23.492 18.933 23.322 20.451 22.513C21.3572 22.0332 22.1591 21.3782 22.8104 20.5862C23.4617 19.7942 23.9493 18.8808 24.245 17.899C24.5452 16.9189 24.6484 15.8892 24.5489 14.869C24.4494 13.8489 24.149 12.8585 23.665 11.955C23.08 10.8508 22.2818 9.8735 21.3166 9.07979C20.3515 8.28608 19.2384 7.69168 18.042 7.331C16.8476 6.96362 15.5922 6.83702 14.3485 6.95856C13.1048 7.08009 11.8977 7.44734 10.797 8.039C9.44542 8.75519 8.24928 9.73227 7.27775 10.9137C6.30623 12.0952 5.57861 13.4575 5.137 14.922C4.68778 16.3841 4.53293 17.9208 4.6814 19.4431C4.82988 20.9655 5.27873 22.4432 6.002 23.791C6.90193 25.4838 8.13418 26.9776 9.625 28.183C11.6107 29.2452 13.8281 29.8 16.08 29.798C17.2035 29.7955 18.3224 29.6537 19.411 29.376ZM18.086 16.828C18.2408 16.7445 18.3708 16.6217 18.463 16.472C18.4268 16.7607 18.3219 17.0364 18.1571 17.2762C17.9923 17.5159 17.7725 17.7127 17.516 17.85C17.219 18.008 16.879 18.04 16.559 17.943C16.4009 17.8953 16.2539 17.8167 16.1264 17.7118C15.9988 17.607 15.8934 17.4779 15.816 17.332C15.7155 17.1427 15.6941 16.9213 15.7565 16.7162C15.8189 16.5111 15.96 16.3392 16.149 16.238C16.2546 16.1817 16.3782 16.1695 16.4927 16.2042C16.6073 16.2389 16.7034 16.3176 16.76 16.423C16.8204 16.5367 16.9027 16.6374 17.002 16.7193C17.1014 16.8012 17.2159 16.8627 17.3391 16.9003C17.4622 16.9379 17.5916 16.9509 17.7197 16.9385C17.8479 16.9261 17.9724 16.8885 18.086 16.828Z" fill="#F4900C"/>
<path d="M26.515 10.499C24.946 7.027 20.398 3.187 14.744 2.564C14.532 2.541 14.321 2.531 14.111 2.517C10.5947 3.02672 7.41393 4.88261 5.24 7.693C8.622 4.884 12.016 4.479 14.504 4.749C19.339 5.282 23.198 8.5 24.51 11.404C26.519 15.852 24.533 21.106 20.086 23.114C19.2658 23.4873 18.3797 23.6941 17.479 23.7224C16.5784 23.7507 15.681 23.6 14.839 23.279C13.9948 22.9631 13.2218 22.4827 12.5647 21.8658C11.9076 21.2488 11.3795 20.5076 11.011 19.685C10.4375 18.4116 10.3925 16.9627 10.8857 15.6561C11.3789 14.3495 12.3701 13.2918 13.642 12.715C14.6082 12.2806 15.7071 12.2468 16.6981 12.6211C17.6891 12.9954 18.4913 13.7473 18.929 14.712C19.1969 15.3083 19.2616 15.9761 19.1131 16.6128C18.9646 17.2495 18.6111 17.8198 18.107 18.236C18.37 17.966 18.577 17.643 18.714 17.28C18.8435 16.9401 18.9042 16.5778 18.8927 16.2143C18.8812 15.8507 18.7977 15.4931 18.647 15.162C18.4761 14.78 18.231 14.4357 17.9259 14.1492C17.6209 13.8627 17.262 13.6397 16.87 13.493C16.4789 13.3438 16.0621 13.2738 15.6438 13.287C15.2254 13.3002 14.8139 13.3964 14.433 13.57C13.9882 13.7688 13.5873 14.054 13.2536 14.409C12.9199 14.764 12.66 15.1818 12.489 15.638C12.3164 16.0935 12.2354 16.5785 12.2506 17.0654C12.2659 17.5522 12.3772 18.0313 12.578 18.475C12.8123 18.9977 13.148 19.4687 13.5656 19.8608C13.9833 20.2529 14.4745 20.5582 15.011 20.759C15.5462 20.9629 16.1166 21.0587 16.689 21.0406C17.2615 21.0226 17.8247 20.8912 18.346 20.654C19.5955 20.0874 20.5694 19.0484 21.0541 17.765C21.5389 16.4815 21.4949 15.0582 20.932 13.807C19.527 10.696 15.849 9.31 12.737 10.712C8.985 12.408 7.312 16.84 9.006 20.592C9.49314 21.6779 10.1908 22.6565 11.0587 23.471C11.9266 24.2854 12.9474 24.9197 14.062 25.337C15.0855 25.7271 16.1717 25.927 17.267 25.927C18.536 25.927 19.801 25.657 20.992 25.119C26.543 22.609 29.021 16.052 26.515 10.499ZM16.656 16.502C16.6029 16.6431 16.4962 16.7574 16.359 16.82C16.1636 16.9078 15.9982 17.0508 15.883 17.2314C15.7679 17.412 15.708 17.6223 15.7107 17.8365C15.7135 18.0507 15.7788 18.2594 15.8986 18.437C16.0184 18.6145 16.1874 18.7532 16.385 18.836C16.1809 18.8181 15.9801 18.7731 15.788 18.702C15.5221 18.6022 15.2786 18.4506 15.0716 18.2562C14.8646 18.0617 14.6982 17.8281 14.582 17.569C14.5001 17.3886 14.4547 17.1937 14.4485 16.9956C14.4423 16.7975 14.4755 16.6002 14.546 16.415C14.688 16.039 14.969 15.739 15.338 15.574C15.4557 15.5198 15.5831 15.4898 15.7126 15.4857C15.8421 15.4816 15.9711 15.5034 16.092 15.55C16.2136 15.5955 16.3249 15.6648 16.4195 15.7537C16.5141 15.8426 16.59 15.9495 16.643 16.068C16.7044 16.2053 16.7091 16.3613 16.656 16.502Z" fill="#FFCC4D"/>
</g>
<defs>
<clipPath id="clip0_1_37">
<rect width="40" height="40" fill="white"/>
</clipPath>
</defs>
</svg>
